<svg id="svg-source" width="24px" height="318px" xmlns="http://www.w3.org/2000/svg" xmlns:xlink="http://www.w3.org/1999/xlink" version="1.1">
  <!-- http://www.flaticon.com/packs/pokemon-go -->

  <defs id="pokemon-icons">

    <svg version="1.1" id="abra" xmlns="http://www.w3.org/2000/svg" xmlns:xlink="http://www.w3.org/1999/xlink" x="0px" y="0px"
    	 viewBox="0 0 127.26 127.26" style="enable-background:new 0 0 127.26 127.26;" xml:space="preserve">
    <g>
    	<g>
    		<path style="fill:#F4D647;" d="M115.338,65.263c0,20.676-24.531,33.486-51.709,33.486S11.92,85.939,11.92,65.263
    			c0-20.68,24.531-45.459,51.709-45.459S115.338,44.584,115.338,65.263z"/>
    	</g>
    	<g>
    		<path style="fill:#E2B90E;" d="M115.338,65.263c0,20.676-24.531,32.152-51.709,32.152S11.92,85.939,11.92,65.263
    			c0-20.68,24.531-34.928,51.709-34.928S115.338,44.584,115.338,65.263z"/>
    	</g>
    	<g>
    		<path style="fill:#E2B90E;" d="M74.109,93.757c0,1.393-4.691,1.643-10.478,1.643c-5.787,0-10.479-0.25-10.479-1.643
    			c0-1.395,4.691-5.037,10.479-5.037C69.417,88.72,74.109,92.363,74.109,93.757z"/>
    	</g>
    	<g>
    		<path style="fill:#E0A010;" d="M115.338,65.263c0-20.682-8.761,18.34-51.709,18.34c-42.947,0-51.709-39.021-51.709-18.34
    			c0,11.986,9.773,20.486,20.332,29.422l21.76,19.484c5.31,4.574,13.924,4.574,19.234,0l21.758-19.482
    			C105.567,84.584,115.338,77.203,115.338,65.263z"/>
    	</g>
    	<g>
    		<path style="fill:#F4EC8E;" d="M83.098,105.347c-4.733-5.432-11.697-8.869-19.468-8.869c-7.771,0-14.735,3.438-19.47,8.871
    			l9.851,8.82c5.31,4.574,13.924,4.574,19.234,0L83.098,105.347z"/>
    	</g>
    	<path style="fill:#33363A;" d="M116.838,65.263c0-21.139-24.553-46.959-53.209-46.959S10.42,44.125,10.42,65.263
    		c0,7.743,3.11,13.418,8.656,18.164c0.012,0.012,0.016,0.029,0.028,0.042l33.856,33.34c0.023,0.023,0.048,0.047,0.073,0.068
    		c2.921,2.516,6.758,3.773,10.596,3.773c3.837,0,7.675-1.259,10.596-3.773c0.026-0.022,0.051-0.045,0.075-0.068l33.684-33.207
    		C113.656,78.821,116.838,73.1,116.838,65.263z M72.23,114.635c-4.754,4.06-12.449,4.061-17.203-0.001l-9.115-8.976
    		c4.594-4.889,10.996-7.681,17.717-7.681c6.718,0,13.118,2.789,17.712,7.675L72.23,114.635z M83.479,103.546
    		c-5.156-5.455-12.324-8.568-19.848-8.568c-7.528,0-14.699,3.115-19.855,8.575L30.934,90.908c1.836,0.915,3.777,1.815,5.816,2.714
    		c0.757,0.334,1.644-0.009,1.978-0.767s-0.009-1.644-0.767-1.978c-15.15-6.683-24.54-13.299-24.54-25.614
    		c0-19.377,23.64-43.959,50.209-43.959s50.209,24.582,50.209,43.959c0,5.472-1.862,9.815-5.251,13.543
    		c-0.012,0.011-0.028,0.014-0.039,0.026l-1.983,1.955c-4.207,3.757-10.077,6.92-17.265,10.091c-0.758,0.334-1.101,1.22-0.767,1.978
    		c0.248,0.561,0.797,0.895,1.374,0.895c0.202,0,0.408-0.041,0.604-0.128c2.018-0.89,3.94-1.781,5.76-2.687L83.479,103.546z"/>
    	<g>
    		<g>
    			<g>
    				<g>
    					<g>
    						<path style="fill:#E2B90E;" d="M10.041,8.109C2.417,15.812-0.654,26.986,3.133,37.193
    							C6.918,47.406,16.53,53.875,27.336,54.748c7.625-7.707,14.881-14.199,11.094-24.412C34.645,20.127,20.848,8.98,10.041,8.109z"
    							/>
    					</g>
    					<g>
    						<path style="fill:#F4EC8E;" d="M10.041,8.109C2.417,15.812-0.654,26.986,3.133,37.193
    							C6.918,47.406,16.53,53.875,27.336,54.748c7.625-7.707-6.504-5.998-10.291-16.211C13.258,28.328,20.848,8.98,10.041,8.109z"/>
    					</g>
    					<g>
    						<path style="fill:#DBD279;" d="M17.045,38.537c-3.098-8.354,1.414-22.818-2.761-28.281C8.096,17.804,5.84,27.894,9.29,37.193
    							c3.149,8.496,10.335,14.389,18.882,16.637C33.776,47.17,20.672,48.32,17.045,38.537z"/>
    					</g>
    					<g>
    						<path style="fill:#33363A;" d="M27.336,56.248c-0.381,0-0.763-0.145-1.055-0.434c-0.589-0.583-0.594-1.532-0.011-2.121
    							c1.716-1.735,1.819-2.531,1.784-2.793c-0.099-0.735-1.731-1.677-3.311-2.588c-3.045-1.757-7.217-4.162-9.104-9.254
    							c-1.561-4.206-1.33-9.608-1.108-14.834c0.375-8.804,0.353-14.22-4.61-14.62C9.095,9.538,8.48,8.814,8.546,7.989
    							c0.066-0.826,0.782-1.432,1.616-1.375c8.094,0.652,7.724,9.338,7.367,17.738c-0.21,4.928-0.427,10.023,0.923,13.663
    							c1.512,4.076,4.994,6.085,7.791,7.698c2.409,1.39,4.489,2.589,4.785,4.786c0.214,1.592-0.62,3.276-2.625,5.303
    							C28.109,56.099,27.723,56.248,27.336,56.248z"/>
    					</g>
    					<g>
    						<path style="fill:#33363A;" d="M27.338,56.248c-0.041,0-0.081-0.002-0.122-0.005C15.375,55.286,5.608,48.186,1.726,37.714
    							c-3.884-10.47-1.107-22.219,7.249-30.66c0.311-0.315,0.74-0.473,1.187-0.44C21.514,7.529,37.355,22.29,41.349,33.062
    							c0.288,0.776-0.108,1.64-0.885,1.928c-0.777,0.285-1.64-0.108-1.928-0.885c-3.545-9.56-17.78-23.062-27.926-24.427
    							c-7.138,7.561-9.467,17.839-6.071,26.993c3.472,9.366,12.253,15.72,22.917,16.581c0.826,0.066,1.441,0.79,1.375,1.616
    							C28.768,55.653,28.112,56.248,27.338,56.248z"/>
    					</g>
    				</g>
    			</g>
    			<g>
    				<path style="fill:#33363A;" d="M21.692,63.916c-0.341,0-0.683-0.115-0.964-0.352c-0.634-0.533-0.716-1.479-0.183-2.114
    					c3.236-3.848,6.937-8.616,7.271-9.609c0.131-0.818,0.883-1.343,1.709-1.199c0.818,0.131,1.365,0.944,1.233,1.762
    					c-0.256,1.597-4.447,6.852-7.918,10.979C22.544,63.734,22.12,63.916,21.692,63.916z"/>
    			</g>
    		</g>
    		<g>
    			<g>
    				<g>
    					<g>
    						<path style="fill:#E2B90E;" d="M117.218,8.109c7.624,7.703,10.696,18.877,6.908,29.084
    							c-3.785,10.213-13.398,16.682-24.203,17.555c-7.624-7.707-14.882-14.199-11.095-24.412
    							C92.616,20.127,106.411,8.98,117.218,8.109z"/>
    					</g>
    					<g>
    						<path style="fill:#F4EC8E;" d="M117.218,8.109c7.624,7.703,10.696,18.877,6.908,29.084
    							c-3.785,10.213-13.398,16.682-24.203,17.555c-7.624-7.707,6.505-5.998,10.292-16.211C114,28.328,106.411,8.98,117.218,8.109z"
    							/>
    					</g>
    					<g>
    						<path style="fill:#DBD279;" d="M110.215,38.537c3.098-8.354-1.414-22.818,2.76-28.281c6.189,7.549,8.444,17.639,4.994,26.938
    							c-3.148,8.496-10.335,14.389-18.882,16.637C93.483,47.17,106.586,48.32,110.215,38.537z"/>
    					</g>
    					<g>
    						<path style="fill:#33363A;" d="M99.923,56.248c-0.387,0-0.773-0.148-1.066-0.445c-2.004-2.026-2.838-3.711-2.624-5.303
    							c0.296-2.196,2.376-3.396,4.785-4.786c2.797-1.613,6.279-3.621,7.791-7.698c1.349-3.639,1.132-8.733,0.922-13.661
    							c-0.358-8.4-0.729-17.088,7.367-17.74c0.837-0.054,1.55,0.549,1.616,1.375c0.066,0.825-0.549,1.549-1.375,1.615
    							c-4.964,0.4-4.986,5.817-4.611,14.622c0.223,5.225,0.453,10.627-1.106,14.832c-1.888,5.092-6.059,7.497-9.105,9.254
    							c-1.579,0.911-3.211,1.853-3.311,2.588c-0.035,0.262,0.068,1.059,1.784,2.793c0.583,0.589,0.578,1.538-0.012,2.121
    							C100.686,56.103,100.305,56.248,99.923,56.248z"/>
    					</g>
    					<g>
    						<path style="fill:#33363A;" d="M99.922,56.248c-0.774,0-1.43-0.595-1.494-1.379c-0.067-0.826,0.548-1.55,1.375-1.616
    							c10.665-0.861,19.446-7.215,22.917-16.581c3.397-9.154,1.068-19.433-6.07-26.993c-10.146,1.365-24.381,14.867-27.926,24.427
    							c-0.288,0.776-1.151,1.172-1.928,0.885c-0.777-0.288-1.173-1.151-0.885-1.928c3.994-10.772,19.835-25.533,31.187-26.448
    							c0.444-0.03,0.875,0.125,1.187,0.44c8.356,8.442,11.134,20.191,7.249,30.66c-3.881,10.472-13.648,17.571-25.489,18.528
    							C100.003,56.246,99.962,56.248,99.922,56.248z"/>
    					</g>
    				</g>
    			</g>
    			<g>
    				<path style="fill:#33363A;" d="M105.568,63.916c-0.428,0-0.852-0.182-1.149-0.534c-3.471-4.127-7.663-9.382-7.918-10.979
    					c-0.131-0.817,0.426-1.587,1.244-1.718c0.815-0.133,1.587,0.427,1.718,1.245c0.315,0.905,4.016,5.673,7.252,9.521
    					c0.533,0.634,0.452,1.58-0.183,2.113C106.251,63.8,105.909,63.916,105.568,63.916z"/>
    			</g>
    		</g>
    	</g>
    	<g>
    		<g>
    			<path style="fill:#33363A;" d="M53.794,93.56c-0.598,0-1.163-0.359-1.396-0.949c-0.024-0.061-2.277-5.76-2.948-7.338
    				c-1.661-1.355-13.445-7.672-21.52-11.848c-0.736-0.38-1.024-1.285-0.644-2.021c0.38-0.736,1.286-1.024,2.021-0.644
    				C51.35,82.157,51.855,83.29,52.097,83.835c0.539,1.216,2.987,7.411,3.091,7.675c0.305,0.771-0.073,1.642-0.844,1.946
    				C54.163,93.527,53.977,93.56,53.794,93.56z"/>
    		</g>
    		<g>
    			<path style="fill:#33363A;" d="M73.467,93.56c-0.183,0-0.37-0.033-0.55-0.104c-0.771-0.305-1.148-1.176-0.844-1.946
    				c0.104-0.264,2.551-6.46,3.091-7.674c0.241-0.544,0.745-1.678,22.787-13.074c0.735-0.381,1.641-0.092,2.021,0.644
    				s0.092,1.641-0.644,2.021c-8.075,4.176-19.86,10.492-21.519,11.848c-0.672,1.576-2.923,7.277-2.947,7.338
    				C74.63,93.201,74.064,93.56,73.467,93.56z"/>
    		</g>
    	</g>
    	<g>
    		<g>
    			<path style="fill:#33363A;" d="M60.795,112.541c-0.618,0-1.197-0.385-1.415-1.001l-0.926-2.625
    				c-0.275-0.781,0.134-1.638,0.916-1.914c0.782-0.271,1.638,0.135,1.914,0.916l0.926,2.625c0.275,0.781-0.134,1.638-0.916,1.914
    				C61.129,112.513,60.961,112.541,60.795,112.541z"/>
    		</g>
    		<g>
    			<path style="fill:#33363A;" d="M66.464,112.541c-0.166,0-0.334-0.027-0.499-0.085c-0.781-0.276-1.191-1.133-0.916-1.914
    				l0.926-2.625c0.275-0.781,1.132-1.188,1.914-0.916c0.781,0.276,1.191,1.133,0.916,1.914l-0.926,2.625
    				C67.662,112.156,67.082,112.541,66.464,112.541z"/>
    		</g>
    	</g>
    </g>
    </svg>

    <svg version="1.1" id="bulbasaur" xmlns="http://www.w3.org/2000/svg" xmlns:xlink="http://www.w3.org/1999/xlink" x="0px" y="0px"
    	 viewBox="0 0 128.041 128.041" style="enable-background:new 0 0 128.041 128.041;" xml:space="preserve">
    <g>
    	<g>
    		<g>
    			<path style="fill:#43B530;" d="M112.767,38.491c18.363,18.363,18.365,35.658,0.002,54.022c-18.365,18.367-79.133,18.365-97.496,0
    				c-18.363-18.363-18.365-35.658,0-54.022C63.82-10.057,64.22-10.057,112.767,38.491z"/>
    		</g>
    		<g>
    			<path style="fill:#107510;" d="M15.273,45.116C7.228,53.159,2.708,60.999,1.712,68.814c0.996,7.814,5.516,15.654,13.561,23.699
    				c18.363,18.365,79.131,18.367,97.496,0c8.043-8.043,12.563-15.883,13.559-23.697c-0.996-7.814-5.516-15.654-13.56-23.699
    				C64.22-3.432,63.82-3.432,15.273,45.116z"/>
    		</g>
    		<g>
    			<path style="fill:#1A8E1C;" d="M15.273,45.116c-5.006,5.004-8.645,9.93-10.92,14.818c2.275,4.891,5.915,9.816,10.92,14.82
    				c18.363,18.365,79.131,18.367,97.496,0c5.004-5.004,8.643-9.93,10.919-14.818c-2.276-4.891-5.916-9.816-10.921-14.82
    				C64.22-3.432,63.82-3.432,15.273,45.116z"/>
    		</g>
    		<g>
    			<path style="fill:#33363A;" d="M64.022,107.787c-0.001,0,0,0-0.002,0c-21.956,0-41.042-5.446-49.808-14.214
    				C4.649,84.01,0,74.828,0,65.502c0-9.326,4.648-18.509,14.212-28.071C38.747,12.895,51.062,0.58,64.02,0.58
    				s25.273,12.314,49.808,36.851c9.563,9.563,14.212,18.745,14.213,28.071s-4.648,18.509-14.211,28.071
    				C105.063,102.341,85.977,107.787,64.022,107.787z M64.02,3.58c-11.716,0-24.492,12.776-47.687,35.972
    				C7.361,48.524,3,57.012,3,65.502c0,8.489,4.361,16.978,13.333,25.95c8.225,8.226,26.497,13.335,47.687,13.335
    				c21.19,0.001,39.463-5.109,47.688-13.335c8.972-8.972,13.333-17.46,13.332-25.95c0-8.489-4.362-16.979-13.334-25.95l0,0
    				C88.512,16.357,75.736,3.58,64.02,3.58z"/>
    		</g>
    	</g>
    	<g>
    		<g>
    			<path style="fill:#43B530;" d="M86.844,38.491c8.599,18.363,8.599,35.658,0.001,54.022c-8.599,18.367-37.051,18.365-45.648,0
    				c-8.599-18.363-8.6-35.658-0.001-54.022C63.927-10.057,64.114-10.057,86.844,38.491z"/>
    		</g>
    		<g>
    			<path style="fill:#1A8E1C;" d="M43.696,45.116c-3.767,8.043-8.383,15.883-8.849,23.697c0.466,7.814,2.582,15.654,6.35,23.699
    				c8.598,18.365,37.05,18.367,45.648,0c3.766-8.043,5.883-15.883,6.349-23.697c-0.466-7.814-5.083-15.654-8.85-23.699
    				C61.614-3.432,66.427-3.432,43.696,45.116z"/>
    		</g>
    		<g>
    			<path style="fill:#33363A;" d="M64.021,107.787C64.021,107.787,64.022,107.787,64.021,107.787
    				c-10.689,0-19.956-5.609-24.183-14.639c-8.833-18.862-8.833-36.433-0.001-55.293C51.82,12.263,57.291,0.58,64.021,0.58
    				c0,0,0,0,0,0c6.73,0,12.199,11.681,24.182,37.275c8.832,18.861,8.833,36.431,0.001,55.293
    				C83.977,102.178,74.709,107.787,64.021,107.787z M64.021,3.58c-4.822-0.001-11.087,13.38-21.466,35.547
    				c-8.425,17.993-8.425,34.755,0.001,52.75c3.728,7.963,11.954,12.91,21.466,12.91c9.512,0,17.737-4.947,21.465-12.91
    				c8.425-17.994,8.424-34.756-0.001-52.75l0,0C75.107,16.96,68.842,3.58,64.021,3.58z"/>
    		</g>
    	</g>
    	<g>
    		<path style="fill:#80EDAC;" d="M113.229,88.519c0,20.676-22.032,37.441-49.209,37.441c-27.178,0-49.209-16.766-49.209-37.441
    			c0-20.68,22.031-45.459,49.209-45.459C91.197,43.06,113.229,67.839,113.229,88.519z"/>
    	</g>
    	<g>
    		<path style="fill:#6ADB9A;" d="M113.229,88.519c0,20.676-22.032,37.441-49.209,37.441c-27.178,0-49.209-16.766-49.209-37.441
    			c0-20.68,22.031-34.928,49.209-34.928C91.197,53.591,113.229,67.839,113.229,88.519z"/>
    	</g>
    	<g>
    		<path style="fill:#80EDAC;" d="M74.457,91.593c0,1.393-4.691,1.643-10.479,1.643S53.5,92.986,53.5,91.593
    			c0-1.394,4.691-5.037,10.479-5.037S74.457,90.198,74.457,91.593z"/>
    	</g>
    	<g>
    		<path style="fill:#47C67B;" d="M113.229,88.519c0,20.676-22.032,37.441-49.209,37.441c-27.178,0-49.209-16.766-49.209-37.441
    			c0-20.682,6.261,18.34,49.209,18.34S113.229,67.837,113.229,88.519z"/>
    	</g>
    	<g>
    		<path style="fill:#BA503A;" d="M77.603,103.081c0,3.893-6.082,7.047-13.583,7.047s-13.583-3.154-13.583-7.047"/>
    	</g>
    	<g>
    		<path style="fill:#33363A;" d="M64.02,127.46c-27.961,0-50.709-17.469-50.709-38.941c0-21.27,22.62-46.959,50.709-46.959
    			s50.709,25.689,50.709,46.959C114.729,109.991,91.981,127.46,64.02,127.46z M64.02,44.56c-26.428,0-47.709,24.048-47.709,43.959
    			c0,19.818,21.402,35.941,47.709,35.941s47.709-16.123,47.709-35.941C111.729,68.608,90.448,44.56,64.02,44.56z"/>
    	</g>
    	<g>
    		<path style="fill:#AD2707;" d="M47.858,84.675c0,4.449-3.605,8.051-8.052,8.051c-4.447,0-8.051-3.602-8.051-8.051
    			c0-4.447,3.604-8.051,8.051-8.051C44.252,76.624,47.858,80.228,47.858,84.675z"/>
    	</g>
    	<g>
    		<circle style="fill:#FFFFFF;" cx="35.802" cy="82.058" r="3.281"/>
    	</g>
    	<path style="fill:#33363A;" d="M39.806,75.124c-3.233,0-6.092,1.619-7.82,4.085c-0.119,0.158-0.222,0.325-0.321,0.498
    		c-0.888,1.45-1.41,3.147-1.41,4.968c0,5.267,4.285,9.551,9.551,9.551c5.267,0,9.552-4.284,9.552-9.551S45.073,75.124,39.806,75.124
    		z M39.806,91.226c-2.721,0-5.058-1.668-6.046-4.034c0.688-0.018,1.525-0.2,2.468-0.396c0.336-0.03,0.659-0.093,0.971-0.19
    		c0.819-0.148,1.694-0.267,2.608-0.267c2.413,0,4.572,0.813,6.047,0.853C44.865,89.558,42.527,91.226,39.806,91.226z"/>
    	<circle style="fill:#FFFFFF;" cx="35.801" cy="82.059" r="1.78"/>
    	<g>
    		<path style="fill:#AD2707;" d="M96.285,84.675c0,4.449-3.604,8.051-8.051,8.051c-4.447,0-8.052-3.602-8.052-8.051
    			c0-4.447,3.604-8.051,8.052-8.051C92.68,76.624,96.285,80.228,96.285,84.675z"/>
    	</g>
    	<g>
    		<circle style="fill:#FFFFFF;" cx="84.229" cy="82.058" r="3.28"/>
    	</g>
    	<path style="fill:#33363A;" d="M88.234,75.124c-3.24,0-6.104,1.625-7.832,4.099c-0.111,0.149-0.207,0.305-0.3,0.466
    		c-0.894,1.453-1.42,3.157-1.42,4.985c0,5.267,4.285,9.551,9.552,9.551c5.266,0,9.551-4.284,9.551-9.551S93.5,75.124,88.234,75.124z
    		 M88.234,91.226c-2.721,0-5.059-1.668-6.047-4.034c0.688-0.018,1.524-0.2,2.467-0.396c0.337-0.03,0.661-0.093,0.974-0.19
    		c0.818-0.148,1.693-0.267,2.606-0.267c2.412,0,4.571,0.813,6.046,0.853C93.292,89.558,90.955,91.226,88.234,91.226z"/>
    	<path style="fill:#FFFFFF;" d="M84.23,80.279c-0.982,0-1.781,0.798-1.781,1.779c0,0.982,0.799,1.781,1.781,1.781
    		c0.981,0,1.779-0.799,1.779-1.781C86.009,81.076,85.211,80.279,84.23,80.279z"/>
    	<g>
    		<g>
    			<path style="fill:#33363A;" d="M61.553,98.216c-0.398,0-0.796-0.157-1.091-0.47l-1.5-1.588c-0.569-0.603-0.542-1.552,0.06-2.121
    				c0.603-0.568,1.552-0.542,2.121,0.061l1.5,1.588c0.569,0.603,0.542,1.552-0.06,2.121C62.292,98.08,61.922,98.216,61.553,98.216z"
    				/>
    		</g>
    		<g>
    			<path style="fill:#33363A;" d="M66.487,98.216c-0.37,0-0.74-0.136-1.03-0.409c-0.602-0.569-0.629-1.519-0.06-2.121l1.5-1.588
    				c0.569-0.602,1.518-0.628,2.121-0.061c0.602,0.569,0.629,1.519,0.06,2.121l-1.5,1.588C67.283,98.059,66.886,98.216,66.487,98.216
    				z"/>
    		</g>
    	</g>
    	<g>
    		<g>
    			<g>
    				<path style="fill:#9CFFC4;" d="M33.55,57.243c2.6-1.83,5.369-3.064,8.057-3.723c0.418-2.48,0.033-4.844-1.305-6.744
    					c-2.901-4.123-9.328-4.807-15.596-2.104c-4.662,4.988-6.188,11.27-3.287,15.391c1.338,1.902,3.432,3.063,5.909,3.506
    					C28.855,61.261,30.952,59.072,33.55,57.243z"/>
    			</g>
    			<g>
    				<path style="fill:#80EDAC;" d="M36.718,49.445c-2.596-3.689-8.016-4.617-13.618-2.836c-3.368,4.598-4.216,9.851-1.681,13.455
    					c1.112,1.582,2.751,2.643,4.693,3.213c1.126-1.205,2.656-0.191,4.107-1.213c0.425-0.299,0.607-2.711,1.041-2.979
    					c0.718-0.641,1.469-1.264,2.289-1.842c1.499-1.055,3.055-1.889,4.618-2.551C38.236,52.767,37.785,50.956,36.718,49.445z"/>
    			</g>
    			<g>
    				<path style="fill:#33363A;" d="M27.331,65.07c-0.088,0-0.177-0.008-0.266-0.023c-2.975-0.532-5.351-1.957-6.872-4.119
    					c-3.271-4.647-1.897-11.591,3.418-17.278c0.141-0.15,0.312-0.271,0.501-0.353c7.148-3.083,14.146-2.03,17.417,2.617
    					c1.521,2.16,2.06,4.877,1.557,7.856c-0.137,0.816-0.916,1.36-1.728,1.23c-0.817-0.138-1.368-0.912-1.23-1.729
    					c0.368-2.184,0.004-4.131-1.052-5.632c-2.354-3.344-7.867-4.032-13.486-1.712c-4.083,4.506-5.297,9.929-2.944,13.272
    					c1.057,1.502,2.767,2.503,4.947,2.893c0.815,0.146,1.358,0.926,1.212,1.741C28.675,64.56,28.043,65.07,27.331,65.07z"/>
    			</g>
    		</g>
    		<g>
    			<g>
    				<path style="fill:#9CFFC4;" d="M94.49,57.243c-2.601-1.83-5.369-3.064-8.057-3.723c-0.419-2.48-0.034-4.844,1.305-6.744
    					c2.9-4.123,9.328-4.807,15.596-2.104c4.661,4.988,6.188,11.27,3.287,15.391c-1.339,1.902-3.432,3.063-5.91,3.506
    					C99.185,61.261,97.087,59.072,94.49,57.243z"/>
    			</g>
    			<g>
    				<path style="fill:#80EDAC;" d="M91.322,49.445c2.596-3.689,8.016-4.617,13.617-2.836c3.369,4.598,4.217,9.851,1.682,13.455
    					c-1.113,1.582-2.752,2.643-4.693,3.213c-1.127-1.205-2.656-0.191-4.107-1.213c-0.426-0.299-0.607-2.711-1.041-2.979
    					c-0.719-0.641-1.469-1.264-2.289-1.842c-1.5-1.055-3.055-1.889-4.619-2.551C89.804,52.767,90.255,50.956,91.322,49.445z"/>
    			</g>
    			<g>
    				<path style="fill:#33363A;" d="M100.708,65.07c-0.712,0-1.345-0.51-1.475-1.236c-0.146-0.815,0.397-1.595,1.212-1.74
    					c2.179-0.39,3.89-1.39,4.948-2.893c2.353-3.343,1.138-8.767-2.944-13.272c-5.619-2.32-11.133-1.633-13.485,1.712
    					c-1.058,1.501-1.421,3.447-1.053,5.631C88.05,54.088,87.5,54.862,86.683,55c-0.817,0.13-1.591-0.413-1.729-1.229
    					c-0.503-2.98,0.035-5.697,1.558-7.858c3.269-4.646,10.269-5.698,17.416-2.616c0.189,0.081,0.36,0.202,0.502,0.353
    					c5.314,5.688,6.688,12.632,3.417,17.278c-1.522,2.163-3.898,3.587-6.873,4.119C100.885,65.062,100.796,65.07,100.708,65.07z"/>
    			</g>
    		</g>
    	</g>
    	<g>
    		<path style="fill:#47C67B;" d="M57.556,69.029c-4.186,0-7.581-3.394-7.581-7.582c0-4.186,5.278-5.697,9.465-5.697
    			s5.697,1.512,5.697,5.697C65.137,65.634,61.743,69.029,57.556,69.029z"/>
    	</g>
    	<g>
    		<circle style="fill:#47C67B;" cx="72.547" cy="66.361" r="2.667"/>
    	</g>
    	<g>
    		<circle style="fill:#47C67B;" cx="82.935" cy="64.376" r="1.986"/>
    	</g>
    	<g>
    		<circle style="fill:#47C67B;" cx="69.296" cy="80.616" r="1.308"/>
    	</g>
    	<g>
    		<circle style="fill:#47C67B;" cx="46.381" cy="66.876" r="2.501"/>
    	</g>
    	<g>
    		<polyline style="fill:#FFFFFF;" points="41.784,101.509 36.73,104.484 36.373,98.632 		"/>
    	</g>
    	<g>
    		<polyline style="fill:#FFFFFF;" points="86.256,101.509 91.31,104.484 91.668,98.632 		"/>
    	</g>
    	<path style="fill:#33363A;" d="M94.913,92.868c-0.745-0.363-1.643-0.057-2.007,0.688c-0.034,0.07-3.558,7.005-15.432,6.78
    		c-8.043-0.141-11.747,1.509-13.455,3.094c-1.708-1.581-5.411-3.226-13.452-3.094c-11.76,0.223-15.283-6.484-15.437-6.788
    		c-0.366-0.738-1.262-1.042-2.003-0.681c-0.744,0.364-1.052,1.263-0.688,2.007c0.069,0.142,0.813,1.568,2.542,3.207
    		c-0.079,0.198-0.12,0.414-0.106,0.642l0.357,5.852c0.032,0.521,0.332,0.987,0.792,1.232c0.221,0.117,0.463,0.176,0.705,0.176
    		c0.263,0,0.526-0.069,0.761-0.207l5.054-2.975c0.17-0.1,0.311-0.23,0.424-0.377c1.731,0.476,3.717,0.793,5.987,0.875
    		c0.201,4.687,6.737,8.328,15.064,8.328c8.328,0,14.866-3.642,15.064-8.33c2.269-0.085,4.253-0.403,5.982-0.878
    		c0.114,0.149,0.257,0.281,0.429,0.382l5.054,2.975c0.234,0.138,0.498,0.207,0.761,0.207c0.242,0,0.484-0.059,0.705-0.176
    		c0.46-0.245,0.761-0.712,0.792-1.232l0.357-5.852c0.014-0.227-0.027-0.443-0.106-0.642c1.731-1.639,2.473-3.065,2.543-3.207
    		C95.965,94.131,95.657,93.233,94.913,92.868z M38.078,101.949l-0.099-1.613c0.461,0.276,0.959,0.54,1.489,0.795L38.078,101.949z
    		 M64.02,108.628c-6.89,0-11.746-2.736-12.053-5.291c7.982,0.091,10.318,2.208,10.532,3.063c-0.016-0.065-0.014-0.103-0.014-0.103
    		l1.536-0.14l1.536,0.14c0,0,0.002,0.037-0.014,0.103c0.214-0.854,2.567-2.992,10.532-3.066
    		C75.77,105.89,70.913,108.628,64.02,108.628z M89.962,101.949l-1.395-0.821c0.532-0.255,1.032-0.52,1.494-0.796L89.962,101.949z"/>
    </g>
    </svg>


    <svg version="1.1" id="charmander" xmlns="http://www.w3.org/2000/svg" xmlns:xlink="http://www.w3.org/1999/xlink" x="0px" y="0px"
    	 viewBox="0 0 127.584 127.584" style="enable-background:new 0 0 127.584 127.584;" xml:space="preserve">
    <g>
    	<g>
    		<g>
    			<g>
    				<path style="fill:#FFD400;" d="M39.136,13.377c-2.965,5.133-3.018,11.144-0.68,16.135c5.49-0.471,10.67-3.521,13.635-8.656
    					c2.963-5.133,3.018-11.145,0.68-16.135C47.281,5.189,42.099,8.244,39.136,13.377z"/>
    			</g>
    			<g>
    				<path style="fill:#FFC200;" d="M38.457,29.512c5.49-0.471,10.67-3.521,13.635-8.656c2.963-5.133,3.018-11.145,0.68-16.135"/>
    			</g>
    			<g>
    				<path style="fill:#FF5B00;" d="M39.343,17.873c-2.004,3.469-2.039,7.529-0.459,10.9c3.707-0.318,7.205-2.379,9.209-5.848
    					c2-3.467,2.037-7.527,0.457-10.897C44.843,12.346,41.343,14.406,39.343,17.873z"/>
    			</g>
    			<g>
    				<path style="fill:#FF7900;" d="M38.884,28.773c3.707-0.318,7.205-2.379,9.209-5.848c2-3.467,2.037-7.527,0.457-10.897"/>
    			</g>
    			<g>
    				<path style="fill:#33363A;" d="M38.456,31.012c-0.578,0-1.109-0.333-1.358-0.863c-2.631-5.616-2.354-12.166,0.739-17.521h0
    					c3.094-5.359,8.629-8.873,14.807-9.4c0.621-0.057,1.219,0.289,1.486,0.857c2.63,5.614,2.354,12.164-0.739,17.521
    					c-3.093,5.356-8.628,8.871-14.806,9.4C38.542,31.01,38.499,31.012,38.456,31.012z M51.834,6.342
    					c-4.767,0.731-8.975,3.585-11.399,7.785c0,0,0,0,0,0c-2.424,4.197-2.792,9.268-1.042,13.763c4.768-0.732,8.976-3.586,11.4-7.784
    					C53.216,15.906,53.584,10.836,51.834,6.342z"/>
    			</g>
    		</g>
    		<g>
    			<g>
    				<path style="fill:#FFD400;" d="M47.541,16.115c-5.135,2.963-8.186,8.143-8.656,13.633c4.99,2.338,11.002,2.285,16.137-0.678
    					c5.133-2.965,8.186-8.144,8.656-13.635C58.687,13.098,52.673,13.15,47.541,16.115z"/>
    			</g>
    			<g>
    				<path style="fill:#FFC200;" d="M38.884,29.748c4.99,2.338,11.002,2.285,16.137-0.678c5.133-2.965,8.186-8.144,8.656-13.635"/>
    			</g>
    			<g>
    				<path style="fill:#FF5B00;" d="M45.47,20.113c-3.469,2.002-5.529,5.5-5.846,9.209c3.369,1.578,7.43,1.543,10.898-0.459
    					c3.465-2.002,5.527-5.5,5.844-9.209C53,18.076,48.937,18.109,45.47,20.113z"/>
    			</g>
    			<g>
    				<path style="fill:#FF7900;" d="M39.625,29.322c3.369,1.578,7.43,1.543,10.898-0.459c3.465-2.002,5.527-5.5,5.844-9.209"/>
    			</g>
    			<g>
    				<path style="fill:#33363A;" d="M46.307,32.9c-2.747,0-5.5-0.595-8.059-1.794c-0.569-0.267-0.912-0.86-0.858-1.486
    					c0.53-6.179,4.044-11.713,9.4-14.804l0,0c5.357-3.094,11.907-3.371,17.523-0.739c0.569,0.267,0.912,0.86,0.858,1.486
    					c-0.53,6.177-4.044,11.712-9.4,14.806C52.855,32.052,49.586,32.9,46.307,32.9z M40.506,28.812
    					c4.494,1.749,9.565,1.382,13.766-1.04c4.198-2.425,7.051-6.633,7.784-11.399c-4.497-1.751-9.567-1.383-13.765,1.042
    					c0,0,0,0-0.001,0C44.092,19.837,41.239,24.044,40.506,28.812z"/>
    			</g>
    		</g>
    	</g>
    	<g>
    		<g>
    			<path style="fill:#E86207;" d="M63.242,80.84C45.271,79.436,31.843,63.728,33.25,45.758c0.463-5.939,2.516-11.365,5.671-15.941
    				C26.62,33.713,17.287,44.725,16.218,58.381C14.814,76.35,28.242,92.057,46.212,93.463c12.029,0.939,23.019-4.787,29.41-14.053
    				C71.736,80.641,67.558,81.178,63.242,80.84z"/>
    		</g>
    		<g>
    			<path style="fill:#F77819;" d="M30.915,33.637c-3.027,4.502-4.982,9.814-5.436,15.613c-1.405,17.969,12.023,33.676,29.993,35.08
    				c7.164,0.561,13.95-1.258,19.625-4.768c-3.738,1.115-7.732,1.6-11.856,1.277C45.271,79.436,31.843,63.728,33.25,45.758
    				c0.463-5.939,2.516-11.365,5.671-15.941C36.068,30.723,33.382,32.021,30.915,33.637z"/>
    		</g>
    		<g>
    			<path style="fill:#33363A;" d="M48.718,95.061c-0.872,0-1.746-0.034-2.623-0.103C27.33,93.49,13.256,77.029,14.723,58.264
    				c1.09-13.926,10.41-25.653,23.745-29.877c0.612-0.196,1.278,0.022,1.659,0.537c0.381,0.516,0.393,1.217,0.029,1.744
    				c-3.116,4.52-4.987,9.778-5.41,15.206c-0.649,8.293,1.97,16.341,7.375,22.662c5.404,6.322,12.947,10.16,21.239,10.809h0
    				c3.988,0.313,7.964-0.146,11.811-1.364c0.61-0.196,1.277,0.022,1.659,0.538c0.381,0.515,0.393,1.216,0.029,1.743
    				C70.456,89.543,59.852,95.06,48.718,95.061z M35.389,32.811C25.38,37.547,18.595,47.233,17.714,58.498
    				c-1.338,17.115,11.499,32.13,28.616,33.47c9.578,0.75,18.958-3.043,25.383-10.052c-2.831,0.504-5.705,0.646-8.588,0.419
    				c-9.09-0.71-17.36-4.918-23.286-11.849c-5.925-6.931-8.796-15.755-8.085-24.846C32.103,41.17,33.346,36.806,35.389,32.811z"/>
    		</g>
    	</g>
    	<g>
    		<g>
    			<path style="fill:#FFAD40;" d="M107.903,88.643c0,20.676-22.032,37.441-49.209,37.441c-27.178,0-49.209-16.766-49.209-37.441
    				c0-20.68,22.031-45.459,49.209-45.459C85.871,43.184,107.903,67.963,107.903,88.643z"/>
    		</g>
    		<g>
    			<path style="fill:#F77819;" d="M107.903,88.643c0,20.676-22.032,37.441-49.209,37.441c-27.178,0-49.209-16.766-49.209-37.441
    				c0-20.68,22.031-34.928,49.209-34.928C85.871,53.715,107.903,67.963,107.903,88.643z"/>
    		</g>
    		<g>
    			<path style="fill:#FFAD40;" d="M69.13,82.787c0,1.395-4.691,1.645-10.478,1.645c-5.787,0-10.479-0.25-10.479-1.645
    				c0-1.393,4.691-5.035,10.479-5.035C64.439,77.752,69.13,81.394,69.13,82.787z"/>
    		</g>
    		<g>
    			<path style="fill:#E86207;" d="M107.903,88.643c0,20.676-22.032,37.441-49.209,37.441c-27.178,0-49.209-16.766-49.209-37.441
    				c0-20.682,6.261,18.34,49.209,18.34C101.642,106.982,107.903,67.961,107.903,88.643z"/>
    		</g>
    		<g>
    			<path style="fill:#33363A;" d="M58.694,127.584c-27.961,0-50.709-17.469-50.709-38.941c0-21.27,22.62-46.959,50.709-46.959
    				s50.709,25.689,50.709,46.959C109.403,110.115,86.655,127.584,58.694,127.584z M58.694,44.684
    				c-26.428,0-47.709,24.048-47.709,43.959c0,19.818,21.402,35.941,47.709,35.941s47.709-16.123,47.709-35.941
    				C106.403,68.731,85.122,44.684,58.694,44.684z"/>
    		</g>
    	</g>
    	<g>
    		<path style="fill:#1362A8;" d="M42.532,74.549c0,4.449-3.605,8.051-8.052,8.051c-4.447,0-8.051-3.602-8.051-8.051
    			c0-4.447,3.604-8.051,8.051-8.051C38.926,66.498,42.532,70.102,42.532,74.549z"/>
    	</g>
    	<g>
    		<circle style="fill:#FFFFFF;" cx="30.476" cy="71.932" r="3.281"/>
    	</g>
    	<path style="fill:#33363A;" d="M34.48,64.998c-3.233,0-6.092,1.619-7.82,4.085c-0.119,0.158-0.222,0.325-0.321,0.498
    		c-0.888,1.45-1.41,3.147-1.41,4.968c0,5.267,4.285,9.551,9.551,9.551c5.267,0,9.552-4.284,9.552-9.551S39.747,64.998,34.48,64.998z
    		 M34.48,81.1c-2.721,0-5.058-1.668-6.046-4.034c0.688-0.018,1.525-0.2,2.468-0.396c0.335-0.03,0.658-0.093,0.97-0.189
    		c0.819-0.148,1.694-0.268,2.608-0.268c2.412,0,4.571,0.813,6.047,0.853C39.539,79.432,37.201,81.1,34.48,81.1z"/>
    	<circle style="fill:#FFFFFF;" cx="30.475" cy="71.933" r="1.78"/>
    	<g>
    		<path style="fill:#1362A8;" d="M90.959,74.549c0,4.449-3.605,8.051-8.051,8.051c-4.447,0-8.052-3.602-8.052-8.051
    			c0-4.447,3.604-8.051,8.052-8.051C87.354,66.498,90.959,70.102,90.959,74.549z"/>
    	</g>
    	<g>
    		<circle style="fill:#FFFFFF;" cx="78.903" cy="71.932" r="3.28"/>
    	</g>
    	<path style="fill:#33363A;" d="M82.908,64.998c-3.24,0-6.104,1.625-7.832,4.099c-0.111,0.149-0.207,0.305-0.3,0.466
    		c-0.894,1.453-1.42,3.157-1.42,4.985c0,5.267,4.285,9.551,9.552,9.551c5.266,0,9.551-4.284,9.551-9.551
    		S88.174,64.998,82.908,64.998z M82.908,81.1c-2.721,0-5.059-1.668-6.047-4.034c0.688-0.018,1.525-0.2,2.468-0.396
    		c0.336-0.03,0.66-0.093,0.973-0.19c0.819-0.148,1.693-0.267,2.607-0.267c2.412,0,4.571,0.813,6.046,0.853
    		C87.966,79.432,85.628,81.1,82.908,81.1z"/>
    	<path style="fill:#FFFFFF;" d="M78.904,70.152c-0.982,0-1.781,0.798-1.781,1.779c0,0.982,0.799,1.781,1.781,1.781
    		c0.981,0,1.779-0.799,1.779-1.781C80.683,70.95,79.885,70.152,78.904,70.152z"/>
    	<g>
    		<g>
    			<path style="fill:#33363A;" d="M56.227,90.84c-0.398,0-0.796-0.157-1.091-0.47l-1.5-1.588c-0.569-0.603-0.542-1.552,0.06-2.121
    				c0.603-0.569,1.552-0.542,2.121,0.061l1.5,1.588c0.569,0.603,0.542,1.552-0.06,2.121C56.966,90.704,56.596,90.84,56.227,90.84z"
    				/>
    		</g>
    		<g>
    			<path style="fill:#33363A;" d="M61.161,90.84c-0.37,0-0.74-0.136-1.03-0.409c-0.602-0.569-0.629-1.519-0.06-2.121l1.5-1.588
    				c0.569-0.603,1.518-0.629,2.121-0.061c0.602,0.569,0.629,1.519,0.06,2.121l-1.5,1.588C61.957,90.683,61.56,90.84,61.161,90.84z"
    				/>
    		</g>
    	</g>
    	<g>
    		<polyline style="fill:#FFFFFF;" points="36.458,94.291 31.404,97.266 31.046,91.414 		"/>
    	</g>
    	<g>
    		<polyline style="fill:#FFFFFF;" points="80.93,94.291 85.984,97.266 86.341,91.414 		"/>
    	</g>
    	<path style="fill:#33363A;" d="M89.586,85.492c-0.746-0.362-1.643-0.057-2.007,0.688c-0.033,0.069-3.453,6.784-14.958,6.784
    		c-0.157,0-0.315-0.001-0.475-0.004c-8.041-0.125-11.745,1.522-13.453,3.101c-1.707-1.578-5.411-3.224-13.453-3.101
    		c-11.744,0.208-15.283-6.483-15.437-6.788c-0.366-0.738-1.262-1.042-2.003-0.681c-0.744,0.364-1.052,1.263-0.688,2.007
    		c0.07,0.143,0.826,1.599,2.59,3.262c-0.11,0.225-0.171,0.477-0.154,0.745l0.357,5.852c0.032,0.521,0.332,0.987,0.792,1.232
    		c0.221,0.117,0.463,0.176,0.705,0.176c0.263,0,0.526-0.069,0.761-0.207l5.054-2.975c0.216-0.127,0.382-0.303,0.506-0.501
    		c2.129,0.575,4.617,0.932,7.565,0.878c9.085-0.146,11.658,2.161,11.883,3.063c-0.016-0.065-0.014-0.103-0.014-0.103l1.536-0.14
    		l1.536,0.14c0,0,0.002,0.037-0.014,0.103c0.226-0.901,2.817-3.234,11.884-3.063c2.949,0.052,5.437-0.304,7.565-0.878
    		c0.124,0.198,0.29,0.374,0.505,0.501l5.054,2.975c0.234,0.138,0.498,0.207,0.761,0.207c0.242,0,0.484-0.059,0.705-0.176
    		c0.46-0.245,0.761-0.712,0.792-1.232l0.357-5.852c0.016-0.267-0.044-0.518-0.153-0.742c1.764-1.664,2.519-3.121,2.589-3.265
    		C90.639,86.755,90.331,85.856,89.586,85.492z M32.752,94.731l-0.108-1.764c0.503,0.301,1.05,0.589,1.635,0.865L32.752,94.731z
    		 M84.636,94.731l-1.525-0.898c0.584-0.275,1.131-0.563,1.633-0.863L84.636,94.731z"/>
    	<g>
    		<g>
    			<path style="fill:#FFD400;" d="M46.298,15.814c0,5.928-2.96,11.16-7.48,14.312c-4.52-3.152-7.479-8.385-7.479-14.312
    				c0-5.928,2.96-11.162,7.479-14.314C43.338,4.652,46.298,9.887,46.298,15.814z"/>
    		</g>
    		<g>
    			<path style="fill:#FFC200;" d="M38.818,30.127c-4.52-3.152-7.479-8.385-7.479-14.312c0-5.928,2.96-11.162,7.479-14.314"/>
    		</g>
    		<g>
    			<path style="fill:#FF5B00;" d="M43.871,19.605c0,4.006-2,7.539-5.053,9.668c-3.053-2.129-5.051-5.662-5.051-9.668
    				c0-4.002,1.998-7.537,5.051-9.664C41.871,12.068,43.871,15.603,43.871,19.605z"/>
    		</g>
    		<g>
    			<path style="fill:#FF7900;" d="M38.818,29.273c-3.053-2.129-5.051-5.662-5.051-9.668c0-4.002,1.998-7.537,5.051-9.664"/>
    		</g>
    		<g>
    			<path style="fill:#33363A;" d="M38.818,31.627c-0.3,0-0.6-0.09-0.858-0.27c-5.085-3.547-8.122-9.357-8.122-15.543
    				c0-6.187,3.036-11.998,8.122-15.545c0.515-0.359,1.2-0.359,1.716,0c5.086,3.547,8.123,9.358,8.123,15.545
    				c0,6.186-3.037,11.996-8.123,15.543C39.418,31.537,39.118,31.627,38.818,31.627z M38.818,3.372
    				c-3.763,3.019-5.979,7.594-5.979,12.442c0,4.848,2.217,9.422,5.979,12.44c3.763-3.018,5.98-7.593,5.98-12.44
    				C44.798,10.966,42.581,6.391,38.818,3.372z"/>
    		</g>
    	</g>
    	<g>
    		<g>
    			<path style="fill:#FFD400;" d="M98.439,25.049c0,5.928-2.96,11.16-7.48,14.313c-4.52-3.152-7.48-8.385-7.48-14.313
    				c0-5.928,2.96-11.162,7.48-14.314C95.479,13.887,98.439,19.121,98.439,25.049z"/>
    		</g>
    		<g>
    			<path style="fill:#FFC200;" d="M90.959,39.361c-4.52-3.152-7.48-8.385-7.48-14.313c0-5.928,2.96-11.162,7.48-14.314"/>
    		</g>
    		<g>
    			<path style="fill:#FF5B00;" d="M96.011,28.84c0,4.006-2,7.539-5.053,9.668c-3.053-2.129-5.051-5.662-5.051-9.668
    				c0-4.002,1.998-7.537,5.051-9.664C94.011,21.303,96.011,24.838,96.011,28.84z"/>
    		</g>
    		<g>
    			<path style="fill:#FF7900;" d="M90.959,38.508c-3.053-2.129-5.051-5.662-5.051-9.668c0-4.002,1.998-7.537,5.051-9.664"/>
    		</g>
    		<g>
    			<path style="fill:#33363A;" d="M90.958,40.861c-0.3,0-0.6-0.09-0.858-0.27c-5.085-3.547-8.122-9.357-8.122-15.543
    				c0-6.187,3.036-11.998,8.122-15.545c0.515-0.359,1.2-0.359,1.716,0c5.086,3.547,8.123,9.358,8.123,15.545
    				c0,6.186-3.037,11.996-8.123,15.543C91.559,40.771,91.259,40.861,90.958,40.861z M90.958,12.606
    				c-3.763,3.019-5.979,7.594-5.979,12.442c0,4.848,2.217,9.422,5.979,12.44c3.763-3.018,5.98-7.593,5.98-12.44
    				C96.939,20.2,94.722,15.625,90.958,12.606z"/>
    		</g>
    	</g>
    	<g>
    		<g>
    			<path style="fill:#FFD400;" d="M118.099,48.744c0,5.928-2.961,11.16-7.481,14.313c-4.52-3.152-7.479-8.385-7.479-14.313
    				c0-5.928,2.96-11.162,7.479-14.314C115.138,37.582,118.099,42.816,118.099,48.744z"/>
    		</g>
    		<g>
    			<path style="fill:#FFC200;" d="M110.618,63.057c-4.52-3.152-7.479-8.385-7.479-14.313c0-5.928,2.96-11.162,7.479-14.314"/>
    		</g>
    		<g>
    			<path style="fill:#FF5B00;" d="M115.669,52.535c0,4.006-1.999,7.539-5.052,9.668c-3.052-2.129-5.052-5.662-5.052-9.668
    				c0-4.002,2-7.537,5.052-9.664C113.67,44.998,115.669,48.533,115.669,52.535z"/>
    		</g>
    		<g>
    			<path style="fill:#FF7900;" d="M110.618,62.203c-3.052-2.129-5.052-5.662-5.052-9.668c0-4.002,2-7.537,5.052-9.664"/>
    		</g>
    		<g>
    			<path style="fill:#33363A;" d="M110.618,64.557c-0.3,0-0.6-0.09-0.858-0.27c-5.085-3.547-8.122-9.357-8.122-15.543
    				c0-6.187,3.036-11.998,8.122-15.545c0.515-0.359,1.2-0.359,1.716,0c5.087,3.547,8.124,9.358,8.124,15.545
    				c0,6.186-3.037,11.996-8.124,15.543C111.218,64.467,110.918,64.557,110.618,64.557z M110.618,36.302
    				c-3.763,3.019-5.979,7.594-5.979,12.442c0,4.848,2.217,9.422,5.979,12.44c3.764-3.019,5.981-7.593,5.981-12.44
    				C116.599,43.896,114.381,39.32,110.618,36.302z"/>
    		</g>
    	</g>
    </g>
  </svg>


      <svg version="1.1" id="squirtle" xmlns="http://www.w3.org/2000/svg" xmlns:xlink="http://www.w3.org/1999/xlink" x="0px" y="0px"
      	 viewBox="0 0 127.789 127.789" style="enable-background:new 0 0 127.789 127.789;" xml:space="preserve">
      <g>
      	<g>
      		<g>
      			<path style="fill:#93F9EA;" d="M97.188,23.982c0.002,0.002,0.005,0.002,0.008,0.004C94.325,11.121,82.848,1.5,69.118,1.5
      				c-15.893,0-28.777,12.885-28.777,28.777c0,11.66,6.939,21.693,16.91,26.215c-0.452-2.025-0.699-4.131-0.699-6.293
      				c0-6.625,2.244-12.721,6.006-17.582c1.484,8.385,8.791,14.758,17.604,14.758c9.883,0,17.896-8.012,17.896-17.895
      				C98.058,27.561,97.747,25.715,97.188,23.982z"/>
      		</g>
      		<g>
      			<path style="fill:#70D3E0;" d="M56.552,50.199c0-6.625,2.244-12.721,6.006-17.582c1.484,8.385,8.791,14.758,17.604,14.758
      				c8.581,0,15.745-6.043,17.484-14.107c-0.128-0.594-0.274-1.182-0.458-1.754c0.002,0.002,0.005,0.002,0.008,0.004
      				C94.325,18.654,82.848,9.033,69.118,9.033c-14.607,0-26.664,10.887-28.522,24.986c1.275,9.789,7.467,18.02,16.021,22.156
      				c0.039-0.73,0.106-1.453,0.199-2.17C56.65,52.76,56.552,51.492,56.552,50.199z"/>
      		</g>
      		<path style="fill:#33363A;" d="M98.661,23.664c0-0.002-0.001-0.003-0.001-0.005C95.601,9.95,83.177,0,69.118,0
      			C52.423,0,38.841,13.582,38.841,30.277c0,11.854,6.983,22.68,17.791,27.581c0.198,0.09,0.409,0.134,0.619,0.134
      			c0.338,0,0.674-0.114,0.946-0.336c0.441-0.358,0.642-0.936,0.518-1.491c-0.44-1.971-0.663-3.979-0.663-5.966
      			c0-5.025,1.341-9.828,3.902-14.058c2.74,7.544,9.938,12.733,18.208,12.733c10.694,0,19.396-8.7,19.396-19.395
      			C99.558,27.514,99.256,25.558,98.661,23.664z M80.162,45.875c-6.959,0-13.018-4.348-15.358-10.678
      			c0.036-0.246,0.019-0.504-0.076-0.753c-2.496-6.524,0.781-13.863,7.306-16.359c2.452-0.939,5.125-0.866,7.524,0.205
      			c2.399,1.072,4.237,3.014,5.176,5.47c0.723,1.886,0.667,3.941-0.157,5.786c-0.824,1.847-2.318,3.261-4.207,3.982
      			c-2.963,1.138-6.297-0.353-7.432-3.315c-0.849-2.22,0.264-4.715,2.48-5.562c0.773-0.296,1.161-1.163,0.865-1.938
      			s-1.165-1.16-1.938-0.865c-3.761,1.438-5.649,5.671-4.21,9.436c1.333,3.482,4.662,5.625,8.187,5.625
      			c1.038,0,2.093-0.186,3.119-0.578c2.637-1.009,4.723-2.983,5.874-5.562s1.229-5.448,0.22-8.082
      			c-1.225-3.203-3.623-5.737-6.754-7.136c-3.13-1.399-6.617-1.493-9.82-0.27c-6.956,2.662-10.914,9.774-9.901,16.855
      			c-3.922,5.255-6.008,11.483-6.008,18.062c0,1.188,0.071,2.382,0.214,3.572c-8.24-4.868-13.425-13.8-13.425-23.494
      			C41.841,15.236,54.077,3,69.118,3C81.734,3,92.891,11.896,95.7,24.172c0.012,0.091,0.032,0.182,0.061,0.271
      			c0.529,1.64,0.797,3.335,0.797,5.038C96.558,38.521,89.202,45.875,80.162,45.875z"/>
      	</g>
      	<g>
      		<g>
      			<g>
      				<g>
      					<path style="fill:#93F9EA;" d="M113.104,88.848c0,20.676-22.032,37.441-49.209,37.441c-27.178,0-49.209-16.766-49.209-37.441
      						c0-20.68,22.031-45.459,49.209-45.459C91.071,43.389,113.104,68.168,113.104,88.848z"/>
      				</g>
      				<g>
      					<path style="fill:#7FE5D8;" d="M113.104,88.848c0,20.676-22.032,37.441-49.209,37.441c-27.178,0-49.209-16.766-49.209-37.441
      						c0-20.68,22.031-34.928,49.209-34.928C91.071,53.92,113.104,68.168,113.104,88.848z"/>
      				</g>
      				<g>
      					<path style="fill:#93F9EA;" d="M74.415,102.902c0,1.393-4.691,1.643-10.479,1.643s-10.479-0.25-10.479-1.643
      						c0-1.395,4.691-5.037,10.479-5.037S74.415,101.508,74.415,102.902z"/>
      				</g>
      				<g>
      					<path style="fill:#70D3E0;" d="M113.104,88.848c0,20.676-22.032,37.441-49.209,37.441c-27.178,0-49.209-16.766-49.209-37.441
      						c0-20.682,6.261,18.34,49.209,18.34S113.104,68.166,113.104,88.848z"/>
      				</g>
      				<g>
      					<path style="fill:#33363A;" d="M63.895,127.789c-27.961,0-50.709-17.469-50.709-38.941c0-21.27,22.619-46.959,50.709-46.959
      						s50.709,25.689,50.709,46.959C114.604,110.32,91.855,127.789,63.895,127.789z M63.895,44.889
      						c-26.428,0-47.709,24.048-47.709,43.959c0,19.818,21.402,35.941,47.709,35.941s47.709-16.123,47.709-35.941
      						C111.604,68.937,90.322,44.889,63.895,44.889z"/>
      				</g>
      			</g>
      			<g>
      				<path style="fill:#893015;" d="M47.732,94.754c0,4.449-3.605,8.051-8.052,8.051c-4.447,0-8.051-3.602-8.051-8.051
      					c0-4.447,3.604-8.051,8.051-8.051C44.127,86.703,47.732,90.307,47.732,94.754z"/>
      			</g>
      			<g>
      				<circle style="fill:#FFFFFF;" cx="35.676" cy="92.137" r="3.281"/>
      			</g>
      			<path style="fill:#33363A;" d="M39.681,85.203c-3.234,0-6.093,1.62-7.822,4.086c-0.118,0.157-0.22,0.323-0.318,0.494
      				c-0.889,1.45-1.411,3.148-1.411,4.97c0,5.267,4.284,9.551,9.551,9.551s9.552-4.284,9.552-9.551S44.947,85.203,39.681,85.203z
      				 M39.681,101.305c-2.721,0-5.058-1.668-6.046-4.034c0.688-0.018,1.524-0.2,2.468-0.396c0.336-0.03,0.659-0.093,0.972-0.19
      				c0.819-0.148,1.693-0.267,2.607-0.267c2.412,0,4.571,0.813,6.047,0.853C44.739,99.637,42.401,101.305,39.681,101.305z"/>
      			<circle style="fill:#FFFFFF;" cx="35.676" cy="92.138" r="1.78"/>
      			<g>
      				<path style="fill:#893015;" d="M96.159,94.754c0,4.449-3.604,8.051-8.051,8.051c-4.447,0-8.052-3.602-8.052-8.051
      					c0-4.447,3.604-8.051,8.052-8.051C92.555,86.703,96.159,90.307,96.159,94.754z"/>
      			</g>
      			<g>
      				<circle style="fill:#FFFFFF;" cx="84.104" cy="92.137" r="3.28"/>
      			</g>
      			<path style="fill:#33363A;" d="M88.108,85.203c-3.238,0-6.101,1.623-7.829,4.095c-0.113,0.151-0.211,0.31-0.305,0.474
      				c-0.893,1.452-1.417,3.155-1.417,4.981c0,5.267,4.285,9.551,9.552,9.551s9.551-4.284,9.551-9.551S93.375,85.203,88.108,85.203z
      				 M88.108,101.305c-2.721,0-5.058-1.668-6.047-4.034c0.688-0.018,1.524-0.2,2.467-0.396c0.337-0.03,0.661-0.093,0.974-0.19
      				c0.818-0.148,1.693-0.267,2.606-0.267c2.412,0,4.571,0.813,6.046,0.853C93.166,99.637,90.829,101.305,88.108,101.305z"/>
      			<circle style="fill:#FFFFFF;" cx="84.104" cy="92.138" r="1.78"/>
      		</g>
      		<path style="fill:#33363A;" d="M94.787,105.697c-0.741-0.362-1.642-0.057-2.007,0.688c-0.034,0.07-3.554,6.973-15.432,6.78
      			c-0.297-0.005-0.587-0.007-0.871-0.007c-7.436,0-10.932,1.583-12.579,3.104c-1.707-1.587-5.412-3.242-13.456-3.097
      			c-0.162,0.003-0.321,0.004-0.479,0.004c-11.367,0-14.806-6.492-14.958-6.792c-0.367-0.739-1.265-1.043-2.003-0.681
      			c-0.744,0.364-1.053,1.263-0.688,2.007c0.172,0.35,4.297,8.466,17.648,8.466c0.174,0,0.351-0.001,0.528-0.004
      			c9.072-0.159,11.657,2.161,11.883,3.063c-0.017-0.065-0.015-0.103-0.015-0.103l1.536-0.14l1.536,0.14c0,0,0.002,0.037-0.015,0.103
      			c0.226-0.901,2.763-3.214,11.885-3.063c13.733,0.228,18.002-8.107,18.175-8.462C95.84,106.96,95.531,106.062,94.787,105.697z"/>
      		<g>
      			<g>
      				<path style="fill:#33363A;" d="M61.427,111.045c-0.398,0-0.795-0.157-1.091-0.47l-1.5-1.588
      					c-0.568-0.603-0.541-1.552,0.061-2.121c0.602-0.567,1.551-0.542,2.121,0.061l1.5,1.588c0.568,0.603,0.541,1.552-0.061,2.121
      					C62.167,110.909,61.797,111.045,61.427,111.045z"/>
      			</g>
      			<g>
      				<path style="fill:#33363A;" d="M66.362,111.045c-0.37,0-0.74-0.136-1.03-0.409c-0.602-0.569-0.629-1.519-0.061-2.121l1.5-1.588
      					c0.571-0.604,1.521-0.627,2.121-0.061c0.602,0.569,0.629,1.519,0.061,2.121l-1.5,1.588
      					C67.157,110.888,66.76,111.045,66.362,111.045z"/>
      			</g>
      		</g>
      		<g>
      			<g>
      				<path style="fill:#33363A;" d="M49.029,82.959c-0.266,0-0.533-0.07-0.776-0.218l-4.674-2.834
      					c-0.709-0.429-0.935-1.352-0.505-2.06c0.428-0.71,1.352-0.935,2.06-0.505l4.674,2.834c0.709,0.429,0.935,1.352,0.505,2.06
      					C50.031,82.702,49.536,82.959,49.029,82.959z"/>
      			</g>
      			<g>
      				<path style="fill:#33363A;" d="M78.76,82.959c-0.507,0-1.002-0.257-1.283-0.723c-0.43-0.708-0.204-1.631,0.505-2.06l4.674-2.834
      					c0.706-0.43,1.631-0.205,2.06,0.505c0.43,0.708,0.204,1.631-0.505,2.06l-4.674,2.834C79.293,82.889,79.025,82.959,78.76,82.959z
      					"/>
      			</g>
      		</g>
      	</g>
      </g>
    </svg>

  </defs>

</svg>
